<?xml version="1.0" encoding="UTF-8"?>
<svg width="16px" height="16px" viewBox="0 0 16 16" version="1.1" xmlns="http://www.w3.org/2000/svg" xmlns:xlink="http://www.w3.org/1999/xlink">
    <title>FA6E045C-4033-4B28-B00C-4DCDA55C05D6</title>
    <g id="效果图" stroke="none" stroke-width="1" fill="none" fill-rule="evenodd">
        <g id="我的仓库电话" transform="translate(-327.000000, -116.000000)" fill="#ADADAD" fill-rule="nonzero">
            <g id="settings-24px-(2)" transform="translate(327.000000, 116.000000)">
                <path d="M13.95,8.78333333 C13.9833333,8.53333333 14,8.275 14,8 C14,7.73333333 13.9833333,7.46666667 13.9416667,7.21666667 L15.6333333,5.9 C15.7833333,5.78333333 15.825,5.55833333 15.7333333,5.39166667 L14.1333333,2.625 C14.0333333,2.44166667 13.825,2.38333333 13.6416667,2.44166667 L11.65,3.24166667 C11.2333333,2.925 10.7916667,2.65833333 10.3,2.45833333 L10,0.341666667 C9.96666667,0.141666667 9.8,0 9.6,0 L6.4,0 C6.2,0 6.04166667,0.141666667 6.00833333,0.341666667 L5.70833333,2.45833333 C5.21666667,2.65833333 4.76666667,2.93333333 4.35833333,3.24166667 L2.36666667,2.44166667 C2.18333333,2.375 1.975,2.44166667 1.875,2.625 L0.283333333,5.39166667 C0.183333333,5.56666667 0.216666667,5.78333333 0.383333333,5.9 L2.075,7.21666667 C2.03333333,7.46666667 2,7.74166667 2,8 C2,8.25833333 2.01666667,8.53333333 2.05833333,8.78333333 L0.366666667,10.1 C0.216666667,10.2166667 0.175,10.4416667 0.266666667,10.6083333 L1.86666667,13.375 C1.96666667,13.5583333 2.175,13.6166667 2.35833333,13.5583333 L4.35,12.7583333 C4.76666667,13.075 5.20833333,13.3416667 5.7,13.5416667 L6,15.6583333 C6.04166667,15.8583333 6.2,16 6.4,16 L9.6,16 C9.8,16 9.96666667,15.8583333 9.99166667,15.6583333 L10.2916667,13.5416667 C10.7833333,13.3416667 11.2333333,13.075 11.6416667,12.7583333 L13.6333333,13.5583333 C13.8166667,13.625 14.025,13.5583333 14.125,13.375 L15.725,10.6083333 C15.825,10.425 15.7833333,10.2166667 15.625,10.1 L13.95,8.78333333 Z M8,11 C6.35,11 5,9.65 5,8 C5,6.35 6.35,5 8,5 C9.65,5 11,6.35 11,8 C11,9.65 9.65,11 8,11 Z" id="Shape"></path>
            </g>
        </g>
    </g>
</svg>