<?xml version="1.0" encoding="UTF-8"?>
<svg width="44px" height="43px" viewBox="0 0 44 43" version="1.1" xmlns="http://www.w3.org/2000/svg" xmlns:xlink="http://www.w3.org/1999/xlink">
    <title>5128EDDD-434D-4F0A-ADA3-3CE886BE70D9@2x</title>
    <g id="效果图" stroke="none" stroke-width="1" fill="none" fill-rule="evenodd">
        <g id="仓库输入电话" transform="translate(-45.000000, -120.000000)">
            <g id="Group" transform="translate(47.000000, 122.000000)">
                <path d="M31.1818182,17.1428571 C32.8386724,17.1428571 34.1818182,18.4860029 34.1818182,20.1428571 L34.1818182,37 C34.1818182,38.6568542 32.8386724,40 31.1818182,40 L8.81818182,40 C7.16132757,40 5.81818182,38.6568542 5.81818182,37 L5.81818182,20.1428571 C5.81818182,18.4860029 7.16132757,17.1428571 8.81818182,17.1428571 L31.1818182,17.1428571 Z M13.8181818,29.2857143 L10.1818182,29.2857143 L10.1818182,37.8571429 L18.9090909,37.8571429 L18.9090909,29.2857143 L16,29.2857143 L16,32.8571429 L13.8181818,32.8571429 L13.8181818,29.2857143 Z M24.7272727,29.2857143 L21.0909091,29.2857143 L21.0909091,37.8571429 L29.8181818,37.8571429 L29.8181818,29.2857143 L26.9090909,29.2857143 L26.9090909,32.8571429 L24.7272727,32.8571429 L24.7272727,29.2857143 Z M19.6363636,19.2857143 L16,19.2857143 L16,27.8571429 L24.7272727,27.8571429 L24.7272727,19.2857143 L21.8181818,19.2857143 L21.8181818,22.8571429 L19.6363636,22.8571429 L19.6363636,19.2857143 Z" id="Combined-Shape" fill="#6D7278"></path>
                <polygon id="Path-2" stroke="#6D7278" stroke-width="3" points="0 13.3308004 0 39.2857143 40 39.2857143 40 13.3308004 20.658814 0"></polygon>
                <rect id="Rectangle" fill="#6D7278" x="15.2727273" y="12.8571429" width="10.1818182" height="2.14285714" rx="1.07142857"></rect>
            </g>
        </g>
    </g>
</svg>